<?xml version="1.0" encoding="UTF-8" standalone="no"?>
<!-- Created with Inkscape (http://www.inkscape.org/) -->

<svg
   width="1024"
   height="1024"
   viewBox="0 0 270.93333 270.93333"
   version="1.1"
   id="svg1"
   inkscape:version="1.4.2 (ebf0e940, 2025-05-08)"
   sodipodi:docname="clock.svg"
   xml:space="preserve"
   inkscape:export-filename="/Users/vtbassmatt/Desktop/clock4.png"
   inkscape:export-xdpi="96"
   inkscape:export-ydpi="96"
   xmlns:inkscape="http://www.inkscape.org/namespaces/inkscape"
   xmlns:sodipodi="http://sodipodi.sourceforge.net/DTD/sodipodi-0.dtd"
   xmlns:xlink="http://www.w3.org/1999/xlink"
   xmlns="http://www.w3.org/2000/svg"
   xmlns:svg="http://www.w3.org/2000/svg"><sodipodi:namedview
     id="namedview1"
     pagecolor="#ffffff"
     bordercolor="#000000"
     borderopacity="0.25"
     inkscape:showpageshadow="2"
     inkscape:pageopacity="0.0"
     inkscape:pagecheckerboard="0"
     inkscape:deskcolor="#d1d1d1"
     inkscape:document-units="px"
     inkscape:zoom="0.74118967"
     inkscape:cx="489.07859"
     inkscape:cy="499.19746"
     inkscape:window-width="1552"
     inkscape:window-height="1001"
     inkscape:window-x="494"
     inkscape:window-y="188"
     inkscape:window-maximized="0"
     inkscape:current-layer="svg1" /><defs
     id="defs1"><linearGradient
       id="linearGradient43"
       inkscape:collect="always"><stop
         style="stop-color:#bc47ff;stop-opacity:1;"
         offset="0"
         id="stop43" /><stop
         style="stop-color:#a200ff;stop-opacity:1;"
         offset="1"
         id="stop42" /></linearGradient><linearGradient
       id="linearGradient41"
       inkscape:collect="always"><stop
         style="stop-color:#bc47ff;stop-opacity:1;"
         offset="0"
         id="stop41" /><stop
         style="stop-color:#a200ff;stop-opacity:1;"
         offset="1"
         id="stop40" /></linearGradient><linearGradient
       id="linearGradient31"
       inkscape:collect="always"><stop
         style="stop-color:#a200ff;stop-opacity:1;"
         offset="0"
         id="stop30" /><stop
         style="stop-color:#bc47ff;stop-opacity:1;"
         offset="1"
         id="stop31" /></linearGradient><linearGradient
       id="linearGradient27"
       inkscape:collect="always"><stop
         style="stop-color:#1500ff;stop-opacity:1;"
         offset="0"
         id="stop26" /><stop
         style="stop-color:#4783ff;stop-opacity:1;"
         offset="1"
         id="stop27" /></linearGradient><rect
       x="236.10691"
       y="536.97456"
       width="84.998486"
       height="76.903392"
       id="rect17" /><clipPath
       id="a"><path
         d="M150.97 50.8c-9.07.38-19.66 3.95-25.85 8.6-5.62 4.21-10.26 10.47-8.46 16.56 9.9.19 20.13-3.47 26.07-8.18 5.55-4.4 9.77-10.63 8.24-16.99m3.35 24.48c-15.27 0-21.72 4.49-32.31 4.49-10.92 0-19.23-4.49-32.43-4.49-12.98 0-26.77 4.88-35.51 13.21l-.16.16A24.3 24.3 0 0 0 46.88 102c-.76 4.14-.56 8.66.62 13.35a46 46 0 0 0 5.93 13.35 65 65 0 0 0 11.45 13.35c7 6.45 16.2 13.28 28.04 13.34 11.08.07 14.21-4.37 29.24-4.42s17.87 4.47 28.94 4.4c11.35-.05 20.7-7 27.67-13.32l1.98-1.83a70 70 0 0 0 10.12-11.51l.87-1.18c-9.96-2.32-17.03-6.85-20.85-12.18-3-4.18-4-8.86-2.81-13.35 1.31-4.98 5.3-9.73 12.2-13.35a45 45 0 0 1 6.52-2.76c-8.72-6.72-20.95-10.61-32.48-10.61"
         id="path1-5" /></clipPath><clipPath
       id="a-4"><path
         d="m 150.97,50.8 c -9.07,0.38 -19.66,3.95 -25.85,8.6 -5.62,4.21 -10.26,10.47 -8.46,16.56 9.9,0.19 20.13,-3.47 26.07,-8.18 5.55,-4.4 9.77,-10.63 8.24,-16.99 m 3.35,24.48 c -15.27,0 -21.72,4.49 -32.31,4.49 -10.92,0 -19.23,-4.49 -32.43,-4.49 -12.98,0 -26.77,4.88 -35.51,13.21 l -0.16,0.16 A 24.3,24.3 0 0 0 46.88,102 c -0.76,4.14 -0.56,8.66 0.62,13.35 a 46,46 0 0 0 5.93,13.35 65,65 0 0 0 11.45,13.35 c 7,6.45 16.2,13.28 28.04,13.34 11.08,0.07 14.21,-4.37 29.24,-4.42 15.03,-0.05 17.87,4.47 28.94,4.4 11.35,-0.05 20.7,-7 27.67,-13.32 l 1.98,-1.83 a 70,70 0 0 0 10.12,-11.51 l 0.87,-1.18 c -9.96,-2.32 -17.03,-6.85 -20.85,-12.18 -3,-4.18 -4,-8.86 -2.81,-13.35 1.31,-4.98 5.3,-9.73 12.2,-13.35 a 45,45 0 0 1 6.52,-2.76 C 178.08,79.17 165.85,75.28 154.32,75.28"
         id="path1-6" /></clipPath><linearGradient
       inkscape:collect="always"
       xlink:href="#linearGradient27"
       id="linearGradient24"
       x1="60.524307"
       y1="57.029037"
       x2="210.40909"
       y2="57.029037"
       gradientUnits="userSpaceOnUse" /><linearGradient
       inkscape:collect="always"
       xlink:href="#linearGradient27"
       id="linearGradient26"
       x1="60.524307"
       y1="57.029037"
       x2="210.40909"
       y2="57.029037"
       gradientUnits="userSpaceOnUse" /><linearGradient
       inkscape:collect="always"
       xlink:href="#linearGradient31"
       id="linearGradient30"
       x1="28.572718"
       y1="135.46666"
       x2="242.3606"
       y2="135.46666"
       gradientUnits="userSpaceOnUse" /><linearGradient
       inkscape:collect="always"
       xlink:href="#linearGradient43"
       id="linearGradient33"
       x1="-60.216766"
       y1="165.67027"
       x2="-60.963814"
       y2="158.56261"
       gradientUnits="userSpaceOnUse" /><linearGradient
       inkscape:collect="always"
       xlink:href="#linearGradient31"
       id="linearGradient35"
       x1="191.70622"
       y1="-25.885855"
       x2="190.97325"
       y2="-32.859558"
       gradientUnits="userSpaceOnUse" /><linearGradient
       inkscape:collect="always"
       xlink:href="#linearGradient41"
       id="linearGradient38"
       x1="-60.216789"
       y1="165.67018"
       x2="-60.963814"
       y2="158.5627"
       gradientUnits="userSpaceOnUse" /><linearGradient
       inkscape:collect="always"
       xlink:href="#linearGradient31"
       id="linearGradient40"
       x1="191.70622"
       y1="-25.885868"
       x2="190.97325"
       y2="-32.859539"
       gradientUnits="userSpaceOnUse" /></defs><g
     inkscape:groupmode="layer"
     id="layer3"
     inkscape:label="ClockBack"
     style="display:inline"><circle
       style="fill:none;stroke:url(#linearGradient30);stroke-width:5.29167;stroke-dasharray:none"
       id="path1"
       cx="135.46666"
       cy="135.46666"
       r="104.24811"
       inkscape:label="clockcircle" /></g><g
     inkscape:label="Menu"
     inkscape:groupmode="layer"
     id="layer1"
     style="display:inline"><path
       style="fill:url(#linearGradient24);fill-opacity:1;stroke:url(#linearGradient26);stroke-width:1.05833;stroke-dasharray:none"
       d="m 135.46666,44.511673 c 26.98733,0 51.22947,11.75355 67.87483,30.42153 0.58776,0.646526 1.42937,1.013586 2.31079,1.013587 1.75036,1e-6 3.16931,-1.418947 3.16931,-3.169309 v 0 c 0,-0.73561 -0.25589,-1.448312 -0.69934,-2.051161 -17.80546,-20.02679 -43.76046,-32.615037 -72.65559,-32.615038 -28.76806,-1e-6 -54.621783,12.477771 -72.428438,32.363853 -0.58705,0.642828 -0.926415,1.454944 -0.926415,2.302354 0,1.750347 1.418936,3.169283 3.169283,3.169283 1.00346,0 1.947637,-0.475216 2.564755,-1.306718 16.66746,-18.508277 40.787125,-30.128381 67.620815,-30.128381 z"
       id="path1-8-2"
       inkscape:label="menubar"
       sodipodi:nodetypes="scssscscsscs" /></g><g
     inkscape:groupmode="layer"
     id="layer2"
     inkscape:label="Hands"
     style="display:inline"><rect
       style="display:inline;fill:url(#linearGradient40);stroke:url(#linearGradient35);stroke-width:3.175;stroke-dasharray:none"
       id="rect15"
       width="3.8370895"
       height="95.400192"
       x="189.42119"
       y="-77.0728"
       rx="2.6124959"
       ry="3.1582904"
       inkscape:label="minutehand"
       inkscape:transform-center-y="-29.289515"
       inkscape:transform-center-x="-26.154158"
       transform="rotate(42.023785)" /><rect
       style="display:inline;fill:url(#linearGradient38);stroke:url(#linearGradient33);stroke-width:3.175;stroke-dasharray:none"
       id="rect16"
       width="3.9716229"
       height="56.446384"
       x="-62.576115"
       y="133.89325"
       rx="2.7041883"
       ry="1.8686972"
       inkscape:label="hourhand"
       inkscape:transform-center-y="-8.7906429"
       inkscape:transform-center-x="17.589345"
       transform="rotate(-63.427229)" /></g></svg>
